<svg xmlns="http://www.w3.org/2000/svg" xmlns:xlink="http://www.w3.org/1999/xlink" fill="none" version="1.1" width="11" height="4" viewBox="0 0 11 4"><path d="M0.75719643,0.07133928L0.75724787,0.07125354L5.5,2.9169049L10.2427521,0.07125354L10.2428036,0.07133933999999997Q10.361536,0.00009998999999999425,10.5,0.00009998999999999425Q10.549236,0.00010001999999997846,10.597525,0.009705450000000004Q10.645815,0.019310890000000025,10.691302,0.038152640000000015Q10.73679,0.05699438000000001,10.777728,0.08434835000000002Q10.818666,0.11170232000000002,10.853481,0.14651734Q10.888296,0.18133234999999998,10.91565,0.22227046Q10.943005,0.26320857,10.961846,0.30869657Q10.980688,0.35418455,10.990294,0.402474351Q10.999899,0.450764146,10.9999,0.5Q10.999899,0.564743951,10.983406,0.62735173Q10.966911,0.68995951,10.935013,0.74629973Q10.903114,0.80263996,10.857915,0.84899479Q10.812716,0.89534962,10.757197,0.92866024L10.757249,0.9287464599999999L5.7572479,3.9287465Q5.698967,3.9637151,5.6334667,3.9818578Q5.5679665,4,5.5,4Q5.432034,4,5.3665338,3.9818578Q5.3010335,3.9637151,5.2427526,3.9287465L0.24275213,0.9287464599999999L0.24280357000000002,0.92866072Q0.18728602,0.89535013,0.14208623999999997,0.8489952700000001Q0.09688643000000002,0.8026403799999999,0.06498705999999999,0.7463001300000001Q0.033087790000000006,0.68995984,0.01659392999999998,0.62735195Q0.00010005000000001818,0.56474407,0.00009998999999999425,0.5Q0.00010001999999997846,0.450764146,0.009705450000000004,0.402474351Q0.019310890000000025,0.35418455,0.038152640000000015,0.30869657Q0.05699438000000001,0.26320857,0.08434835000000002,0.22227046Q0.11170232000000002,0.18133234999999998,0.14651734,0.14651734Q0.18133234999999998,0.11170232000000002,0.22227046,0.08434838Q0.26320857,0.056994409999999995,0.30869657,0.038152660000000005Q0.35418455,0.019310890000000025,0.402474351,0.009705450000000004Q0.450764146,0.00010001999999997846,0.5,0.00009998999999999425Q0.6384642899999999,0.00009998999999999425,0.75719643,0.07133928Z" fill-rule="evenodd" fill="#FFFFFF" fill-opacity="1"/></svg>