<svg xmlns="http://www.w3.org/2000/svg" xmlns:xlink="http://www.w3.org/1999/xlink" fill="none" version="1.1" width="5" height="10" viewBox="0 0 5 10"><path d="M0.12637007,0.8321155Q0.06536524999999999,0.76348504,0.032732609999999995,0.67765474Q0.00009998999999999425,0.5918244420000001,0.00009998999999999425,0.5Q0.00010001999999997846,0.450764146,0.009705450000000004,0.402474351Q0.019310890000000025,0.35418455,0.038152640000000015,0.30869657Q0.05699438000000001,0.26320857,0.08434835000000002,0.22227046Q0.11170232000000002,0.18133234999999998,0.14651734,0.14651734Q0.18133234999999998,0.11170232000000002,0.22227046,0.08434838Q0.26320857,0.056994409999999995,0.30869657,0.038152660000000005Q0.35418455,0.019310890000000025,0.402474351,0.009705450000000004Q0.450764146,0.00010001999999997846,0.5,0.00009998999999999425Q0.60709275,0.00009998999999999425,0.70478706,0.04397118Q0.80248135,0.08784239999999999,0.87362993,0.1678845L0.87370467,0.16781806999999999L4.8737049,4.6678181Q4.9039607,4.7018557,4.9275689,4.740799Q4.9511771,4.7797422,4.967361,4.8223095Q4.9835453,4.8648777,4.9917727,4.9096684Q5,4.9544601,5,5Q5,5.0455408,4.9917727,5.090332Q4.9835453,5.1351228,4.967361,5.17769Q4.9511771,5.2202578,4.9275689,5.2592015Q4.9039607,5.2981448,4.8737049,5.3321819L0.87370467,9.8321819L0.87362987,9.8321152Q0.80248132,9.912158,0.70478705,9.9560289Q0.60709275,9.9998999,0.5,9.9998999Q0.450764146,9.9998989,0.402474351,9.9902935Q0.35418455,9.9806881,0.30869657,9.9618454Q0.26320857,9.9430046,0.22227046,9.9156513Q0.18133234999999998,9.8882971,0.14651734,9.8534822Q0.11170232000000002,9.8186665,0.08434838,9.7777281Q0.056994409999999995,9.7367897,0.038152660000000005,9.6913023Q0.019310890000000025,9.6458149,0.009705450000000004,9.5975246Q0.00010001999999997846,9.5492363,0.00009998999999999425,9.5Q0.00010001999999997846,9.4081745,0.03273263999999998,9.3223448Q0.06536528000000003,9.236515,0.12637013000000002,9.1678848L0.12629532999999998,9.1678181L3.8310225,5L0.12629532999999998,0.83218193L0.12637007,0.8321155Z" fill-rule="evenodd" fill="#999999" fill-opacity="1"/></svg>