<svg xmlns="http://www.w3.org/2000/svg" xmlns:xlink="http://www.w3.org/1999/xlink" fill="none" version="1.1" width="16" height="16" viewBox="0 0 16 16"><defs><clipPath id="master_svg0_0_1565"><rect x="0" y="0" width="16" height="16" rx="0"/></clipPath></defs><g clip-path="url(#master_svg0_0_1565)"><path d="M4.666666373069763,3.3333331865348814C4.666666373069763,3.3333331865348814,4.666666373069763,1.3333333165348815,4.666666373069763,1.3333333165348815C4.666666373069763,0.9651466565348816,4.965146373069763,0.6666666865348816,5.333333173069763,0.6666666865348816C5.333333173069763,0.6666666865348816,10.666666373069763,0.6666666865348816,10.666666373069763,0.6666666865348816C11.034866673069763,0.6666666865348816,11.333332373069764,0.9651466565348816,11.333332373069764,1.3333333165348815C11.333332373069764,1.3333333165348815,11.333332373069764,3.3333331865348814,11.333332373069764,3.3333331865348814C11.333332373069764,3.3333331865348814,13.999999373069762,3.3333331865348814,13.999999373069762,3.3333331865348814C14.368199373069762,3.3333331865348814,14.666665373069764,3.6318129865348814,14.666665373069764,3.9999996865348817C14.666665373069764,3.9999996865348817,14.666665373069764,13.333332686534881,14.666665373069764,13.333332686534881C14.666665373069764,13.70153268653488,14.368199373069762,13.999998686534882,13.999999373069762,13.999998686534882C13.999999373069762,13.999998686534882,2.000000003069763,13.999998686534882,2.000000003069763,13.999998686534882C1.6318133430697632,13.999998686534882,1.3333333730697632,13.70153268653488,1.3333333730697632,13.333332686534881C1.3333333730697632,13.333332686534881,1.3333333730697632,3.9999996865348817,1.3333333730697632,3.9999996865348817C1.3333333730697632,3.6318129865348814,1.6318133430697632,3.3333331865348814,2.000000003069763,3.3333331865348814C2.000000003069763,3.3333331865348814,4.666666373069763,3.3333331865348814,4.666666373069763,3.3333331865348814ZM2.6666666730697632,9.999999686534881C2.6666666730697632,9.999999686534881,2.6666666730697632,12.666665686534882,2.6666666730697632,12.666665686534882C2.6666666730697632,12.666665686534882,13.333332373069764,12.666665686534882,13.333332373069764,12.666665686534882C13.333332373069764,12.666665686534882,13.333332373069764,9.999999686534881,13.333332373069764,9.999999686534881C13.333332373069764,9.999999686534881,2.6666666730697632,9.999999686534881,2.6666666730697632,9.999999686534881ZM7.333332873069764,7.333332686534882C7.333332873069764,7.333332686534882,7.333332873069764,8.666666186534883,7.333332873069764,8.666666186534883C7.333332873069764,8.666666186534883,8.666666373069763,8.666666186534883,8.666666373069763,8.666666186534883C8.666666373069763,8.666666186534883,8.666666373069763,7.333332686534882,8.666666373069763,7.333332686534882C8.666666373069763,7.333332686534882,7.333332873069764,7.333332686534882,7.333332873069764,7.333332686534882ZM5.999999873069763,1.9999999865348816C5.999999873069763,1.9999999865348816,5.999999873069763,3.3333331865348814,5.999999873069763,3.3333331865348814C5.999999873069763,3.3333331865348814,9.999999373069762,3.3333331865348814,9.999999373069762,3.3333331865348814C9.999999373069762,3.3333331865348814,9.999999373069762,1.9999999865348816,9.999999373069762,1.9999999865348816C9.999999373069762,1.9999999865348816,5.999999873069763,1.9999999865348816,5.999999873069763,1.9999999865348816Z" fill="#53B99D" fill-opacity="1"/></g></svg>