<svg xmlns="http://www.w3.org/2000/svg" xmlns:xlink="http://www.w3.org/1999/xlink" fill="none" version="1.1" width="34" height="34" viewBox="0 0 34 34"><defs><clipPath id="master_svg0_0_1511"><rect x="0" y="0" width="34" height="34" rx="0"/></clipPath></defs><g clip-path="url(#master_svg0_0_1511)"><path d="M30.953413150230407,8.71774675491333C30.953413150230407,8.71774675491333,30.318138150230407,8.71774675491333,30.318138150230407,8.71774675491333C30.318138150230407,8.71774675491333,30.318138150230407,5.54133605491333,30.318138150230407,5.54133605491333C30.318138150230407,4.4931135549133305,29.551047150230406,3.25178095491333,28.613655150230407,2.78325175491333C28.613655150230407,2.78325175491333,25.235869150230407,1.09434175491333,16.97712315023041,1.09434175491333C8.718377950230408,1.09434175491333,5.340954650230407,2.78325175491333,5.340954650230407,2.78325175491333C4.403298450230407,3.25178095491333,3.6361736502304076,4.4931135549133305,3.6361736502304076,5.54133605491333C3.6361736502304076,5.54133605491333,3.6361736502304076,8.71774675491333,3.6361736502304076,8.71774675491333C3.6361736502304076,8.71774675491333,3.000898250230408,8.71774675491333,3.000898250230408,8.71774675491333C1.9526755802304079,8.71774675491333,1.0950721502304077,9.57534935491333,1.0950721502304077,10.62357185491333C1.0950721502304077,10.62357185491333,1.0950721502304077,12.52939775491333,1.0950721502304077,12.52939775491333C1.0950721502304077,13.57761975491333,1.9526755802304079,14.43522475491333,3.000898250230408,14.43522475491333C3.000898250230408,14.43522475491333,3.6361736502304076,14.43522475491333,3.6361736502304076,14.43522475491333C3.6361736502304076,14.43522475491333,3.6361736502304076,27.45858575491333,3.6361736502304076,27.45858575491333C3.6361736502304076,28.28411575491333,4.168851250230407,28.98898575491333,4.906757450230408,29.25228575491333C4.906757450230408,29.25228575491333,4.906757450230408,30.31734175491333,4.906757450230408,30.31734175491333C4.906757450230408,31.71499275491333,6.050239950230408,32.858476754913326,7.447892550230407,32.858476754913326C8.845545150230407,32.858476754913326,9.989028350230408,31.71492775491333,9.989028350230408,30.31734175491333C9.989028350230408,30.31734175491333,9.989028350230408,29.36441275491333,9.989028350230408,29.36441275491333C9.989028350230408,29.36441275491333,23.96531715023041,29.36441275491333,23.96531715023041,29.36441275491333C23.96531715023041,29.36441275491333,23.96531715023041,30.31734175491333,23.96531715023041,30.31734175491333C23.96531715023041,31.71499275491333,25.10880115023041,32.858476754913326,26.506453150230406,32.858476754913326C27.904104150230406,32.858476754913326,29.047587150230406,31.71492775491333,29.047587150230406,30.31734175491333C29.047587150230406,30.31734175491333,29.047587150230406,29.25228575491333,29.047587150230406,29.25228575491333C29.785460150230406,28.98895075491333,30.31817115023041,28.28378375491333,30.31817115023041,27.45858575491333C30.31817115023041,27.45858575491333,30.31817115023041,14.43522475491333,30.31817115023041,14.43522475491333C30.31817115023041,14.43522475491333,30.95344615023041,14.43522475491333,30.95344615023041,14.43522475491333C32.00166915023041,14.43522475491333,32.85927215023041,13.57761975491333,32.85927215023041,12.52939775491333C32.85927215023041,12.52939775491333,32.85927215023041,10.62357185491333,32.85927215023041,10.62357185491333C32.85927215023041,9.57538275491333,32.00163715023041,8.71774675491333,30.953413150230407,8.71774675491333ZM10.624269850230407,4.2707519549133295C10.624269850230407,3.9213554549133303,10.910148050230408,3.63547635491333,11.259545150230407,3.63547635491333C11.259545150230407,3.63547635491333,22.694668150230406,3.63547635491333,22.694668150230406,3.63547635491333C23.044064150230408,3.63547635491333,23.329943150230406,3.9213554549133303,23.329943150230406,4.2707519549133295C23.329943150230406,4.2707519549133295,23.329943150230406,5.54133605491333,23.329943150230406,5.54133605491333C23.329943150230406,5.89073275491333,23.044064150230408,6.17661095491333,22.694668150230406,6.17661095491333C22.694668150230406,6.17661095491333,11.259545150230407,6.17661095491333,11.259545150230407,6.17661095491333C10.910148050230408,6.17661095491333,10.624269850230407,5.89073275491333,10.624269850230407,5.54133605491333C10.624269850230407,5.54133605491333,10.624269850230407,4.2707519549133295,10.624269850230407,4.2707519549133295ZM7.7654803502304075,26.82337775491333C6.8881543502304075,26.82337775491333,6.177275050230408,26.11186875491333,6.177275050230408,25.23517275491333C6.177275050230408,24.35847675491333,6.8881543502304075,23.64696775491333,7.7654803502304075,23.64696775491333C8.642507950230407,23.64696775491333,9.353685750230408,24.35847675491333,9.353685750230408,25.23517275491333C9.353685750230408,26.11186875491333,8.642507950230407,26.82337775491333,7.7654803502304075,26.82337775491333ZM26.188797150230407,26.82337775491333C25.31147015023041,26.82337775491333,24.60059215023041,26.11186875491333,24.60059215023041,25.23517275491333C24.60059215023041,24.35847675491333,25.31147015023041,23.64696775491333,26.188797150230407,23.64696775491333C27.066124150230408,23.64696775491333,27.777003150230406,24.35847675491333,27.777003150230406,25.23517275491333C27.777003150230406,26.11186875491333,27.06609015023041,26.82337775491333,26.188797150230407,26.82337775491333ZM27.776970150230408,19.51762775491333C27.776970150230408,19.86702375491333,27.491089150230408,20.15290275491333,27.141693150230406,20.15290275491333C27.141693150230406,20.15290275491333,6.812583850230408,20.15290275491333,6.812583850230408,20.15290275491333C6.463187050230408,20.15290275491333,6.177308450230408,19.86702375491333,6.177308450230408,19.51762775491333C6.177308450230408,19.51762775491333,6.177308450230408,9.35305455491333,6.177308450230408,9.35305455491333C6.177308450230408,9.00365785491333,6.463187050230408,8.71777915491333,6.812583850230408,8.71777915491333C6.812583850230408,8.71777915491333,27.141693150230406,8.71777915491333,27.141693150230406,8.71777915491333C27.491089150230408,8.71777915491333,27.776970150230408,9.00365785491333,27.776970150230408,9.35305455491333C27.776970150230408,9.35305455491333,27.776970150230408,19.51762775491333,27.776970150230408,19.51762775491333Z" fill="#3AC0AA" fill-opacity="1"/></g></svg>