<svg xmlns="http://www.w3.org/2000/svg" xmlns:xlink="http://www.w3.org/1999/xlink" fill="none" version="1.1" width="18" height="18" viewBox="0 0 18 18"><defs><clipPath id="master_svg0_0_4090"><rect x="0" y="0" width="18" height="18" rx="0"/></clipPath></defs><g clip-path="url(#master_svg0_0_4090)"><path d="M2.104327512549591,3.9002325559753417C2.104327512549591,3.9002325559753417,5.253787812549591,5.999872255975342,5.253787812549591,5.999872255975342C5.253787812549591,5.999872255975342,8.39347491254959,1.6042874759753418,8.39347491254959,1.6042874759753418C8.634224712549592,1.2672299819753419,9.102673812549591,1.1891624159753418,9.439724312549592,1.4299199159753417C9.50707461254959,1.4780249159753418,9.56594971254959,1.5369449659753418,9.614099812549592,1.6042874759753418C9.614099812549592,1.6042874759753418,12.753824812549592,5.999872255975342,12.753824812549592,5.999872255975342C12.753824812549592,5.999872255975342,15.903224812549592,3.9002325559753417,15.903224812549592,3.9002325559753417C16.24792481254959,3.6704626559753417,16.713524812549593,3.763597455975342,16.943325812549592,4.108244855975341C17.04210081254959,4.256452355975342,17.08492481254959,4.434989955975341,17.06414981254959,4.6118998559753415C17.06414981254959,4.6118998559753415,15.831748812549591,15.087523655975343,15.831748812549591,15.087523655975343C15.78727481254959,15.465223655975342,15.467175812549591,15.749848655975342,15.08685081254959,15.749848655975342C15.08685081254959,15.749848655975342,2.9207249125495913,15.749848655975342,2.9207249125495913,15.749848655975342C2.540414912549591,15.749848655975342,2.220300012549591,15.465223655975342,2.1758625125495907,15.087523655975343C2.1758625125495907,15.087523655975343,0.9434400377495911,4.6118998559753415,0.9434400377495911,4.6118998559753415C0.895042538549591,4.200524855975342,1.189297442549591,3.827804755975342,1.6006724225495912,3.7794072559753418C1.7775824025495912,3.758594755975342,1.9561199125495912,3.8014199559753417,2.104327512549591,3.9002325559753417ZM9.003824512549592,11.249849755975342C9.83219941254959,11.249849755975342,10.503824512549592,10.578299955975341,10.503824512549592,9.749849755975342C10.503824512549592,8.921474955975341,9.83219941254959,8.249849755975342,9.003824512549592,8.249849755975342C8.175374312549591,8.249849755975342,7.503825012549591,8.921474955975341,7.503825012549591,9.749849755975342C7.503825012549591,10.578299955975341,8.175374312549591,11.249849755975342,9.003824512549592,11.249849755975342Z" fill="#FDBC7D" fill-opacity="1"/></g></svg>