<svg xmlns="http://www.w3.org/2000/svg" xmlns:xlink="http://www.w3.org/1999/xlink" fill="none" version="1.1" width="20" height="20" viewBox="0 0 20 20"><defs><clipPath id="master_svg0_0_4039"><rect x="0" y="0" width="20" height="20" rx="0"/></clipPath></defs><g clip-path="url(#master_svg0_0_4039)"><path d="M16.615085313465116,6.666666813465119C16.615085313465116,6.666666813465119,17.50000131346512,6.666666813465119,17.50000131346512,6.666666813465119C18.420501313465117,6.666666813465119,19.16666731346512,7.412858813465118,19.16666731346512,8.333333813465117C19.16666731346512,8.333333813465117,19.16666731346512,11.666667313465119,19.16666731346512,11.666667313465119C19.16666731346512,12.587167313465118,18.420501313465117,13.333334313465118,17.50000131346512,13.333334313465118C17.50000131346512,13.333334313465118,16.615085313465116,13.333334313465118,16.615085313465116,13.333334313465118C16.205001313465118,16.621918313465116,13.399667313465118,19.16666731346512,10.000000313465119,19.16666731346512C10.000000313465119,19.16666731346512,10.000000313465119,17.50000131346512,10.000000313465119,17.50000131346512C12.76141631346512,17.50000131346512,15.000000313465119,15.26141631346512,15.000000313465119,12.500000313465119C15.000000313465119,12.500000313465119,15.000000313465119,7.500000313465119,15.000000313465119,7.500000313465119C15.000000313465119,4.738575313465118,12.76141631346512,2.5000000134651184,10.000000313465119,2.5000000134651184C7.238575313465119,2.5000000134651184,5.000000313465119,4.738575313465118,5.000000313465119,7.500000313465119C5.000000313465119,7.500000313465119,5.000000313465119,13.333334313465118,5.000000313465119,13.333334313465118C5.000000313465119,13.333334313465118,2.5000000134651184,13.333334313465118,2.5000000134651184,13.333334313465118C1.5795249934651183,13.333334313465118,0.8333333134651184,12.587167313465118,0.8333333134651184,11.666667313465119C0.8333333134651184,11.666667313465119,0.8333333134651184,8.333333813465117,0.8333333134651184,8.333333813465117C0.8333333134651184,7.412858813465118,1.5795249934651183,6.666666813465119,2.5000000134651184,6.666666813465119C2.5000000134651184,6.666666813465119,3.3849085134651182,6.666666813465119,3.3849085134651182,6.666666813465119C3.7949918134651184,3.3780749134651185,6.600316813465119,0.8333333134651184,10.000000313465119,0.8333333134651184C13.399667313465118,0.8333333134651184,16.205001313465118,3.3780749134651185,16.615085313465116,6.666666813465119ZM2.5000000134651184,8.333333813465117C2.5000000134651184,8.333333813465117,2.5000000134651184,11.666667313465119,2.5000000134651184,11.666667313465119C2.5000000134651184,11.666667313465119,3.3333333134651184,11.666667313465119,3.3333333134651184,11.666667313465119C3.3333333134651184,11.666667313465119,3.3333333134651184,8.333333813465117,3.3333333134651184,8.333333813465117C3.3333333134651184,8.333333813465117,2.5000000134651184,8.333333813465117,2.5000000134651184,8.333333813465117ZM16.66666731346512,8.333333813465117C16.66666731346512,8.333333813465117,16.66666731346512,11.666667313465119,16.66666731346512,11.666667313465119C16.66666731346512,11.666667313465119,17.50000131346512,11.666667313465119,17.50000131346512,11.666667313465119C17.50000131346512,11.666667313465119,17.50000131346512,8.333333813465117,17.50000131346512,8.333333813465117C17.50000131346512,8.333333813465117,16.66666731346512,8.333333813465117,16.66666731346512,8.333333813465117ZM6.466200213465118,13.154083313465119C6.466200213465118,13.154083313465119,7.349650213465118,11.740583313465118,7.349650213465118,11.740583313465118C8.11800841346512,12.221833313465119,9.02650001346512,12.500000313465119,10.000000313465119,12.500000313465119C10.973500313465118,12.500000313465119,11.882000313465118,12.221833313465119,12.650333313465119,11.740583313465118C12.650333313465119,11.740583313465118,13.533834313465118,13.154083313465119,13.533834313465118,13.154083313465119C12.509335313465119,13.795750313465119,11.298000313465119,14.166667313465119,10.000000313465119,14.166667313465119C8.702000413465118,14.166667313465119,7.490683413465119,13.795750313465119,6.466200213465118,13.154083313465119Z" fill="#FFFFFF" fill-opacity="1"/></g></svg>