<svg xmlns="http://www.w3.org/2000/svg" xmlns:xlink="http://www.w3.org/1999/xlink" fill="none" version="1.1" width="5" height="9" viewBox="0 0 5 9"><path d="M0.14651731,0.85348269Q0.07620522000000002,0.78317061,0.038152640000000015,0.69130346Q0.00009998999999999425,0.599436291,0.00009998999999999425,0.5Q0.00010001999999997846,0.450764146,0.009705450000000004,0.402474351Q0.019310890000000025,0.35418455,0.038152640000000015,0.30869657Q0.05699438000000001,0.26320857,0.08434835000000002,0.22227046Q0.11170232000000002,0.18133234999999998,0.14651734,0.14651734Q0.18133234999999998,0.11170232000000002,0.22227046,0.08434838Q0.26320857,0.056994409999999995,0.30869657,0.038152660000000005Q0.35418455,0.019310890000000025,0.402474351,0.009705450000000004Q0.450764146,0.00010001999999997846,0.5,0.00009998999999999425Q0.599436291,0.00009998999999999425,0.69130346,0.038152640000000015Q0.78317061,0.07620522000000002,0.85348269,0.14651731L0.8535533799999999,0.14644662000000003L4.8535533,4.1464467Q4.8883753,4.1812687,4.9157343,4.2222147Q4.9430938,4.2631607,4.9619393,4.3086576Q4.9807849,4.3541548,4.9903927,4.4024544Q5,4.4507537,5,4.499999799999999Q5,4.5492454,4.9903927,4.5975451Q4.9807849,4.6458445,4.9619393,4.6913414Q4.9430938,4.7368383,4.9157343,4.7777853Q4.8883753,4.8187313,4.8535533,4.8535533L0.8535533799999999,8.8535538L0.8534824599999999,8.8534832Q0.7831703999999999,8.9237947,0.6913033,8.9618473Q0.599436209,8.9998999,0.5,8.9998999Q0.450764146,8.9998989,0.402474351,8.9902935Q0.35418455,8.9806881,0.30869657,8.9618473Q0.26320857,8.9430046,0.22227046,8.9156513Q0.18133234999999998,8.8882971,0.14651734,8.8534822Q0.11170232000000002,8.8186674,0.08434838,8.777729Q0.056994409999999995,8.7367907,0.038152660000000005,8.6913023Q0.019310890000000025,8.6458149,0.009705450000000004,8.5975246Q0.00010001999999997846,8.5492363,0.00009998999999999425,8.5Q0.00009998999999999425,8.4005637,0.038152640000000015,8.308696300000001Q0.07620522000000002,8.2168293,0.14651731,8.1465173L0.14644662000000003,8.1464467L3.7928934,4.5L0.14644662000000003,0.8535533799999999L0.14651731,0.85348269Z" fill-rule="evenodd" fill="#666666" fill-opacity="1"/></svg>