<svg xmlns="http://www.w3.org/2000/svg" xmlns:xlink="http://www.w3.org/1999/xlink" fill="none" version="1.1" width="20" height="20" viewBox="0 0 20 20"><defs><clipPath id="master_svg0_0_1571"><rect x="0" y="0" width="20" height="20" rx="0"/></clipPath></defs><g clip-path="url(#master_svg0_0_1571)"><path d="M3.3333333134651184,12.5C3.3333333134651184,12.5,3.3333333134651184,7.0833335,3.3333333134651184,7.0833335C3.3333333134651184,5.0122666,5.0122664134651185,3.33333337,7.083333313465118,3.33333337C9.154416413465118,3.33333337,10.833333313465118,5.0122666,10.833333313465118,7.0833335C10.833333313465118,7.0833335,10.833333313465118,12.916667,10.833333313465118,12.916667C10.833333313465118,14.06725,11.766083313465119,15.000001,12.916666313465118,15.000001C14.067249313465119,15.000001,14.999999313465118,14.06725,14.999999313465118,12.916667C14.999999313465118,12.916667,14.999999313465118,7.3577423,14.999999313465118,7.3577423C14.028999313465118,7.0145507,13.333333313465118,6.0885167,13.333333313465118,5C13.333333313465118,3.6192917,14.452583313465118,2.5,15.833333313465118,2.5C17.21408431346512,2.5,18.33333331346512,3.6192917,18.33333331346512,5C18.33333331346512,6.0885167,17.637666313465118,7.0145507,16.666666313465118,7.3577423C16.666666313465118,7.3577423,16.666666313465118,12.916667,16.666666313465118,12.916667C16.666666313465118,14.98775,14.987749313465118,16.666667,12.916666313465118,16.666667C10.845583313465118,16.666667,9.166666313465118,14.98775,9.166666313465118,12.916667C9.166666313465118,12.916667,9.166666313465118,7.0833335,9.166666313465118,7.0833335C9.166666313465118,5.9327419,8.233925213465119,5,7.083333313465118,5C5.932741413465118,5,4.999999813465118,5.9327419,4.999999813465118,7.0833335C4.999999813465118,7.0833335,4.999999813465118,12.5,4.999999813465118,12.5C4.999999813465118,12.5,7.499999813465118,12.5,7.499999813465118,12.5C7.499999813465118,12.5,4.166666613465118,16.666667,4.166666613465118,16.666667C4.166666613465118,16.666667,0.8333333134651184,12.5,0.8333333134651184,12.5C0.8333333134651184,12.5,3.3333333134651184,12.5,3.3333333134651184,12.5ZM15.833333313465118,5.8333335C16.29358331346512,5.8333335,16.666666313465118,5.4602334,16.666666313465118,5C16.666666313465118,4.5397666,16.29358331346512,4.1666667,15.833333313465118,4.1666667C15.373083313465118,4.1666667,14.999999313465118,4.5397666,14.999999313465118,5C14.999999313465118,5.4602334,15.373083313465118,5.8333335,15.833333313465118,5.8333335Z" fill="#000000" fill-opacity="1"/></g></svg>