<svg xmlns="http://www.w3.org/2000/svg" xmlns:xlink="http://www.w3.org/1999/xlink" fill="none" version="1.1" width="12.000016212463379" height="14.48526668548584" viewBox="0 0 12.000016212463379 14.48526668548584"><path d="M10.242666,10.242667C10.242666,10.242667,5.9999995,14.485267,5.9999995,14.485267C5.9999995,14.485267,1.7573599,10.242667,1.7573599,10.242667C-0.58578664,7.899467,-0.58578664,4.1005068,1.7573599,1.75736C4.1005063,-0.58578676,7.8994665,-0.58578676,10.242666,1.75736C12.585799,4.1005068,12.585799,7.899467,10.242666,10.242667ZM5.9999995,7.3333335C6.7363997,7.3333335,7.333333,6.7364001,7.333333,6C7.333333,5.2636199,6.7363997,4.666667,5.9999995,4.666667C5.2635994,4.666667,4.6666665,5.2636199,4.6666665,6C4.6666665,6.7364001,5.2635994,7.3333335,5.9999995,7.3333335Z" fill="#FFFFFF" fill-opacity="1"/></svg>