<svg xmlns="http://www.w3.org/2000/svg" xmlns:xlink="http://www.w3.org/1999/xlink" fill="none" version="1.1" width="34" height="34" viewBox="0 0 34 34"><defs><clipPath id="master_svg0_0_1521"><rect x="0" y="0" width="34" height="34" rx="0"/></clipPath></defs><g clip-path="url(#master_svg0_0_1521)"><path d="M3.6955078821325684,6.98925783060913C3.6955078821325684,6.98925783060913,9.602344042132568,3.4066405306091307,9.602344042132568,3.4066405306091307C10.067187742132568,3.124413970609131,10.671484042132569,3.270507752909131,10.95371054213257,3.7353515006091307C11.04667954213257,3.891406180609131,11.09648464213257,4.067382750609131,11.09648464213257,4.249999940609131C11.09648464213257,4.249999940609131,11.09648464213257,26.01796903060913,11.09648464213257,26.01796903060913C11.09648464213257,26.36328103060913,10.917186742132568,26.68535203060913,10.618358642132568,26.864648030609132C10.618358642132568,26.864648030609132,4.714843742132569,30.39414203060913,4.714843742132569,30.39414203060913C4.2500000421325685,30.67304803060913,3.645703192132568,30.52363303060913,3.3634766221325685,30.05546903060913C3.270507872132568,29.902734030609132,3.2240233421325684,29.72675803060913,3.2240233421325684,29.547462030609132C3.2240233421325684,29.547462030609132,3.2240233421325684,7.832616830609131,3.2240233421325684,7.832616830609131C3.2240233421325684,7.487304230609131,3.403320372132568,7.16855483060913,3.6955078821325684,6.98925783060913ZM23.381641342132568,6.98925783060913C23.381641342132568,6.98925783060913,29.285157342132567,3.4066405306091307,29.285157342132567,3.4066405306091307C29.750001342132567,3.124413970609131,30.35429734213257,3.270507752909131,30.63652334213257,3.7353515006091307C30.72949134213257,3.891406180609131,30.77929834213257,4.067382750609131,30.77929834213257,4.249999940609131C30.77929834213257,4.249999940609131,30.77929834213257,26.01796903060913,30.77929834213257,26.01796903060913C30.77929834213257,26.36328103060913,30.600000342132567,26.68535203060913,30.30117134213257,26.864648030609132C30.30117134213257,26.864648030609132,24.397657342132568,30.39414203060913,24.397657342132568,30.39414203060913C23.93281334213257,30.67304803060913,23.32851534213257,30.52363303060913,23.046289342132567,30.05546903060913C22.95332134213257,29.902734030609132,22.90683734213257,29.72675803060913,22.90683734213257,29.547462030609132C22.90683734213257,29.547462030609132,22.90683734213257,7.832616830609131,22.90683734213257,7.832616830609131C22.910157342132567,7.487304230609131,23.08613334213257,7.16855483060913,23.381641342132568,6.98925783060913ZM14.55956934213257,4.522265530609131C14.55956934213257,4.522265530609131,20.46640734213257,8.058398230609132,20.46640734213257,8.058398230609132C20.761914342132567,8.23769523060913,20.944532342132568,8.55644513060913,20.944532342132568,8.90175773060913C20.944532342132568,8.90175773060913,20.944532342132568,29.82636603060913,20.944532342132568,29.82636603060913C20.944532342132568,30.370897030609132,20.50292734213257,30.809181030609132,19.95839634213257,30.809181030609132C19.77910034213257,30.809181030609132,19.603124342132567,30.75937403060913,19.450389342132567,30.66640603060913C19.450389342132567,30.66640603060913,13.543553342132569,27.10039103060913,13.543553342132569,27.10039103060913C13.248046342132568,26.92441503060913,13.065429242132568,26.60234203060913,13.065429242132568,26.25703003060913C13.065429242132568,26.25703003060913,13.065429242132568,5.36562513060913,13.065429242132568,5.36562513060913C13.065429242132568,4.8210939306091305,13.507031342132569,4.382812530609131,14.048242342132568,4.382812530609131C14.227538342132569,4.382812530609131,14.403515342132568,4.429296830609131,14.55956934213257,4.522265530609131Z" fill="#FAAA98" fill-opacity="1"/></g></svg>