<svg xmlns="http://www.w3.org/2000/svg" xmlns:xlink="http://www.w3.org/1999/xlink" fill="none" version="1.1" width="24" height="24" viewBox="0 0 24 24"><defs><clipPath id="master_svg0_0_522"><rect x="0" y="0" width="24" height="24" rx="0"/></clipPath></defs><g clip-path="url(#master_svg0_0_522)"><path d="M2,8.9937401C2,5.68349,4.6765399,3,8.000659899999999,3C8.000659899999999,3,15.9993,3,15.9993,3C19.3134,3,22,5.6947801,22,8.9937401C22,8.9937401,22,21,22,21C22,21,8.000659899999999,21,8.000659899999999,21C4.68659,21,2,18.3052,2,15.0063C2,15.0063,2,8.9937401,2,8.9937401ZM20,19C20,19,20,8.9937401,20,8.9937401C20,6.7953901000000005,18.204901,5,15.9993,5C15.9993,5,8.000659899999999,5,8.000659899999999,5C5.78458,5,4,6.78458,4,8.9937401C4,8.9937401,4,15.0063,4,15.0063C4,17.204599,5.79512,19,8.000659899999999,19C8.000659899999999,19,20,19,20,19ZM14,11C14,11,16,11,16,11C16,11,16,13,16,13C16,13,14,13,14,13C14,13,14,11,14,11ZM8,11C8,11,10,11,10,11C10,11,10,13,10,13C10,13,8,13,8,13C8,13,8,11,8,11Z" fill="#FFFFFF" fill-opacity="1"/></g></svg>