<svg xmlns="http://www.w3.org/2000/svg" xmlns:xlink="http://www.w3.org/1999/xlink" fill="none" version="1.1" width="16" height="16" viewBox="0 0 16 16"><defs><clipPath id="master_svg0_0_3622"><rect x="0" y="0" width="16" height="16" rx="0"/></clipPath></defs><g clip-path="url(#master_svg0_0_3622)"><path d="M3.6666666865348816,8.000133792092896C3.6666666865348816,8.000133792092896,2.6666666865348816,8.000133792092896,2.6666666865348816,8.000133792092896C2.6666666865348816,8.000133792092896,2.6666666865348816,4.666833192092895,2.6666666865348816,4.666833192092895C2.6666666865348816,4.666833192092895,1.3333333765348816,4.666833192092895,1.3333333765348816,4.666833192092895C1.3333333765348816,4.666833192092895,1.3333333765348816,3.3334999920928956,1.3333333765348816,3.3334999920928956C1.3333333765348816,3.3334999920928956,5.333333686534882,3.3334999920928956,5.333333686534882,3.3334999920928956C5.333333686534882,3.3334999920928956,5.333333686534882,4.666833192092895,5.333333686534882,4.666833192092895C5.333333686534882,4.666833192092895,4.000000186534882,4.666833192092895,4.000000186534882,4.666833192092895C4.000000186534882,4.666833192092895,4.000000186534882,6.530480192092895,4.000000186534882,6.530480192092895C4.000000186534882,6.530480192092895,10.542067186534881,4.777546692092896,10.542067186534881,4.777546692092896C10.542067186534881,4.777546692092896,10.155133886534882,3.3334999920928956,10.155133886534882,3.3334999920928956C10.155133886534882,3.3334999920928956,8.000000186534882,3.3334999920928956,8.000000186534882,3.3334999920928956C8.000000186534882,3.3334999920928956,8.000000186534882,2.0001667520128956,8.000000186534882,2.0001667520128956C8.000000186534882,2.0001667520128956,10.652267186534882,2.0001667520128956,10.652267186534882,2.0001667520128956C10.952400686534881,1.9934534183928956,11.229467686534882,2.1914533720928957,11.310600686534881,2.4942867120928955C11.310600686534881,2.4942867120928955,12.345867686534882,6.357986692092895,12.345867686534882,6.357986692092895C12.345867686534882,6.357986692092895,11.058000686534882,6.703066592092895,11.058000686534882,6.703066592092895C11.058000686534882,6.703066592092895,10.887133686534881,6.065447092092896,10.887133686534881,6.065447092092896C10.887133686534881,6.065447092092896,3.6666666865348816,8.000133792092896,3.6666666865348816,8.000133792092896ZM3.3333333865348815,12.666801192092896C4.069713486534882,12.666801192092896,4.666666686534882,12.069866192092896,4.666666686534882,11.333466792092896C4.666666686534882,10.597132892092896,4.069713486534882,10.000133792092896,3.3333333865348815,10.000133792092896C2.5969532865348817,10.000133792092896,2.0000000865348815,10.597132892092896,2.0000000865348815,11.333466792092896C2.0000000865348815,12.069866192092896,2.5969532865348817,12.666801192092896,3.3333333865348815,12.666801192092896ZM3.3333333865348815,14.000134192092895C1.8605733865348817,14.000134192092895,0.6666666865348816,12.806267192092896,0.6666666865348816,11.333466792092896C0.6666666865348816,9.860733292092895,1.8605733865348817,8.666800292092896,3.3333333865348815,8.666800292092896C4.806093386534881,8.666800292092896,6.000000186534882,9.860733292092895,6.000000186534882,11.333466792092896C6.000000186534882,12.806267192092896,4.806093386534881,14.000134192092895,3.3333333865348815,14.000134192092895ZM12.000000686534882,12.666801192092896C13.104600686534882,12.666801192092896,14.000000686534882,11.771400692092895,14.000000686534882,10.666800692092895C14.000000686534882,9.562267492092897,13.104600686534882,8.666800292092896,12.000000686534882,8.666800292092896C10.895400686534881,8.666800292092896,10.000000686534882,9.562267492092897,10.000000686534882,10.666800692092895C10.000000686534882,11.771400692092895,10.895400686534881,12.666801192092896,12.000000686534882,12.666801192092896ZM12.000000686534882,14.000134192092895C10.159066886534882,14.000134192092895,8.666666686534882,12.507800192092896,8.666666686534882,10.666800692092895C8.666666686534882,8.825867392092896,10.159066886534882,7.333466792092896,12.000000686534882,7.333466792092896C13.840934686534881,7.333466792092896,15.333333686534882,8.825867392092896,15.333333686534882,10.666800692092895C15.333333686534882,12.507800192092896,13.840934686534881,14.000134192092895,12.000000686534882,14.000134192092895Z" fill="#000000" fill-opacity="1"/></g></svg>