<svg xmlns="http://www.w3.org/2000/svg" xmlns:xlink="http://www.w3.org/1999/xlink" fill="none" version="1.1" width="16" height="16" viewBox="0 0 16 16"><defs><clipPath id="master_svg0_0_3604"><rect x="0" y="0" width="16" height="16" rx="0"/></clipPath></defs><g clip-path="url(#master_svg0_0_3604)"><path d="M13.49506644595337,3.171573323162842C15.003532445953368,4.683146723162842,15.055332445953368,7.091333423162842,13.65239944595337,8.662000223162842C13.65239944595337,8.662000223162842,7.999933245953369,14.323333523162841,7.999933245953369,14.323333523162841C7.999933245953369,14.323333523162841,2.347586645953369,8.662000223162842,2.347586645953369,8.662000223162842C0.9446998859533691,7.091333423162842,0.9971398759533692,4.6793401231628415,2.504906645953369,3.171573323162842C4.014379945953369,1.662099893162842,6.430127145953369,1.6112467031628417,8.000667045953369,3.019020123162842C9.56666704595337,1.6133333431628418,11.98666644595337,1.6599999031628418,13.49506644595337,3.171573323162842ZM3.4477133459533693,4.114379923162842C2.454553345953369,5.107539923162841,2.404693245953369,6.6982007231628415,3.319953345953369,7.748800723162842C3.319953345953369,7.748800723162842,7.999933245953369,12.436200523162842,7.999933245953369,12.436200523162842C7.999933245953369,12.436200523162842,12.680066445953369,7.748800723162842,12.680066445953369,7.748800723162842C13.59566644595337,6.697800623162842,13.54600044595337,5.110166823162842,12.55133344595337,4.1134002231628415C11.559799445953368,3.119860123162842,9.96386674595337,3.0720399231628415,8.916200145953368,3.989173323162842C8.916200145953368,3.989173323162842,6.114380345953369,6.7912669231628415,6.114380345953369,6.7912669231628415C6.114380345953369,6.7912669231628415,5.171573645953369,5.848426823162842,5.171573645953369,5.848426823162842C5.171573645953369,5.848426823162842,7.054666545953369,3.964000123162842,7.054666545953369,3.964000123162842C7.054666545953369,3.964000123162842,7.00013354595337,3.918006623162842,7.00013354595337,3.918006623162842C5.950300245953369,3.0746466231628418,4.415480145953369,3.1466198231628417,3.4477133459533693,4.114379923162842Z" fill="#000000" fill-opacity="1"/></g></svg>