<svg xmlns="http://www.w3.org/2000/svg" xmlns:xlink="http://www.w3.org/1999/xlink" fill="none" version="1.1" width="16" height="16" viewBox="0 0 16 16"><defs><clipPath id="master_svg0_0_3628"><rect x="0" y="0" width="16" height="16" rx="0"/></clipPath></defs><g clip-path="url(#master_svg0_0_3628)"><path d="M8.000200519302368,2C11.594934019302368,2,14.585599019302368,4.5865064,15.212599019302369,8C14.585599019302368,11.4134665,11.594934019302368,14,8.000200519302368,14C4.4054138193023675,14,1.4147666693023682,11.4134665,0.7877600193023682,8C1.4147666693023682,4.5865064,4.4054138193023675,2,8.000200519302368,2ZM8.000200519302368,12.666667C10.823934019302369,12.666667,13.240200019302367,10.701333,13.851800019302368,8C13.240200019302367,5.2986865000000005,10.823934019302369,3.3333334,8.000200519302368,3.3333334C5.176400419302368,3.3333334,2.760146719302368,5.2986865000000005,2.1485201193023684,8C2.760146719302368,10.701333,5.176400419302368,12.666667,8.000200519302368,12.666667ZM8.000200519302368,11C6.343320619302368,11,5.000173319302368,9.6568666,5.000173319302368,8C5.000173319302368,6.3431468,6.343320619302368,5,8.000200519302368,5C9.657000819302368,5,11.000200019302369,6.3431468,11.000200019302369,8C11.000200019302369,9.6568666,9.657000819302368,11,8.000200519302368,11ZM8.000200519302368,9.666667C8.920666919302368,9.666667,9.666867519302368,8.920466900000001,9.666867519302368,8C9.666867519302368,7.0795331,8.920666919302368,6.3333335,8.000200519302368,6.3333335C7.0797336193023686,6.3333335,6.3335073193023685,7.0795331,6.3335073193023685,8C6.3335073193023685,8.920466900000001,7.0797336193023686,9.666667,8.000200519302368,9.666667Z" fill="#000000" fill-opacity="1"/></g></svg>