<svg xmlns="http://www.w3.org/2000/svg" xmlns:xlink="http://www.w3.org/1999/xlink" fill="none" version="1.1" width="24" height="24" viewBox="0 0 24 24"><defs><clipPath id="master_svg0_0_3650"><rect x="0" y="0" width="24" height="24" rx="0"/></clipPath></defs><g clip-path="url(#master_svg0_0_3650)"><path d="M19,4C19,4,5,4,5,4C5,4,5,20,5,20C5,20,19,20,19,20C19,20,19,4,19,4ZM3,2.99180007C3,2.44405007,3.4474901,2,3.99850011,2C3.99850011,2,19.999701,2,19.999701,2C20.551901,2,20.999601,2.44771999,20.999701,3C20.999701,3,21,20.9925,21,20.9925C21,21.548901,20.555099,22,20.006599,22C20.006599,22,3.9934001,22,3.9934001,22C3.44476008,22,3,21.544701,3,21.0082C3,21.0082,3,2.99180007,3,2.99180007Z" fill="#000000" fill-opacity="1"/><path d="M11.29289869375,13.121296868164062C11.29289869375,13.121296868164062,15.53549769375,8.878677368164062,15.53549769375,8.878677368164062C15.53549769375,8.878677368164062,16.94969749375,10.292897268164062,16.94969749375,10.292897268164062C16.94969749375,10.292897268164062,11.29289869375,15.949697468164063,11.29289869375,15.949697468164063C11.29289869375,15.949697468164063,7.40380859375,12.060697568164063,7.40380859375,12.060697568164063C7.40380859375,12.060697568164063,8.81801839375,10.646397568164062,8.81801839375,10.646397568164062C8.81801839375,10.646397568164062,11.29289869375,13.121296868164062,11.29289869375,13.121296868164062Z" fill="#3BCDA1" fill-opacity="1"/></g></svg>