<svg xmlns="http://www.w3.org/2000/svg" xmlns:xlink="http://www.w3.org/1999/xlink" fill="none" version="1.1" width="24" height="24" viewBox="0 0 24 24"><defs><clipPath id="master_svg0_0_3640"><rect x="0" y="0" width="24" height="24" rx="0"/></clipPath></defs><g clip-path="url(#master_svg0_0_3640)"><path d="M19,22C19,22,5,22,5,22C3.34315,22,2,20.6569,2,19C2,19,2,3,2,3C2,2.44771999,2.44771999,2,3,2C3,2,17,2,17,2C17.552298999999998,2,18,2.44771999,18,3C18,3,18,15,18,15C18,15,22,15,22,15C22,15,22,19,22,19C22,20.6569,20.6569,22,19,22ZM18,17C18,17,18,19,18,19C18,19.552299,18.447701,20,19,20C19.552299,20,20,19.552299,20,19C20,19,20,17,20,17C20,17,18,17,18,17ZM16,20C16,20,16,4,16,4C16,4,4,4,4,4C4,4,4,19,4,19C4,19.552299,4.4477201,20,5,20C5,20,16,20,16,20Z" fill="#000000" fill-opacity="1"/><path d="M6,9L14,9L14,7L6,7L6,9ZM6,13L14,13L14,11L6,11L6,13ZM6,17L11,17L11,15L6,15L6,17Z" fill="#3BCDA1" fill-opacity="1"/></g></svg>