<svg xmlns="http://www.w3.org/2000/svg" xmlns:xlink="http://www.w3.org/1999/xlink" fill="none" version="1.1" width="16" height="16" viewBox="0 0 16 16"><defs><clipPath id="master_svg0_0_3634"><rect x="0" y="0" width="16" height="16" rx="0"/></clipPath></defs><g clip-path="url(#master_svg0_0_3634)"><path d="M9.333333746139527,9.501333886534882C9.333333746139527,9.501333886534882,9.333333746139527,10.894266686534882,9.333333746139527,10.894266686534882C8.916267146139527,10.746866686534881,8.467533846139526,10.666666686534882,8.000000246139527,10.666666686534882C5.790860146139526,10.666666686534882,4.000000146139526,12.457533686534882,4.000000146139526,14.666666686534882C4.000000146139526,14.666666686534882,2.6666667461395264,14.666666686534882,2.6666667461395264,14.666666686534882C2.6666667461395264,11.721132686534881,5.054480046139526,9.333333686534882,8.000000246139527,9.333333686534882C8.460400346139526,9.333333686534882,8.907200546139526,9.391667086534882,9.333333746139527,9.501333886534882ZM8.000000246139527,8.666666686534882C5.790000246139527,8.666666686534882,4.000000146139526,6.876666686534882,4.000000146139526,4.666666686534882C4.000000146139526,2.4566664865348815,5.790000246139527,0.6666666865348816,8.000000246139527,0.6666666865348816C10.210000246139526,0.6666666865348816,12.000000746139527,2.4566664865348815,12.000000746139527,4.666666686534882C12.000000746139527,6.876666686534882,10.210000246139526,8.666666686534882,8.000000246139527,8.666666686534882ZM8.000000246139527,7.333333686534882C9.473333646139526,7.333333686534882,10.666666746139526,6.140000086534881,10.666666746139526,4.666666686534882C10.666666746139526,3.1933332865348816,9.473333646139526,2.0000000865348815,8.000000246139527,2.0000000865348815C6.526666846139527,2.0000000865348815,5.333333446139527,3.1933332865348816,5.333333446139527,4.666666686534882C5.333333446139527,6.140000086534881,6.526666846139527,7.333333686534882,8.000000246139527,7.333333686534882ZM12.000000746139527,11.333333686534882C12.000000746139527,11.333333686534882,12.000000746139527,9.333333686534882,12.000000746139527,9.333333686534882C12.000000746139527,9.333333686534882,13.333333746139527,9.333333686534882,13.333333746139527,9.333333686534882C13.333333746139527,9.333333686534882,13.333333746139527,11.333333686534882,13.333333746139527,11.333333686534882C13.333333746139527,11.333333686534882,15.333333746139527,11.333333686534882,15.333333746139527,11.333333686534882C15.333333746139527,11.333333686534882,15.333333746139527,12.666666686534882,15.333333746139527,12.666666686534882C15.333333746139527,12.666666686534882,13.333333746139527,12.666666686534882,13.333333746139527,12.666666686534882C13.333333746139527,12.666666686534882,13.333333746139527,14.666666686534882,13.333333746139527,14.666666686534882C13.333333746139527,14.666666686534882,12.000000746139527,14.666666686534882,12.000000746139527,14.666666686534882C12.000000746139527,14.666666686534882,12.000000746139527,12.666666686534882,12.000000746139527,12.666666686534882C12.000000746139527,12.666666686534882,10.000000246139527,12.666666686534882,10.000000246139527,12.666666686534882C10.000000246139527,12.666666686534882,10.000000246139527,11.333333686534882,10.000000246139527,11.333333686534882C10.000000246139527,11.333333686534882,12.000000746139527,11.333333686534882,12.000000746139527,11.333333686534882Z" fill="#000000" fill-opacity="1"/></g></svg>