<svg xmlns="http://www.w3.org/2000/svg" xmlns:xlink="http://www.w3.org/1999/xlink" fill="none" version="1.1" width="24" height="24" viewBox="0 0 24 24"><defs><clipPath id="master_svg0_0_3658"><rect x="0" y="0" width="24" height="24" rx="0"/></clipPath></defs><g clip-path="url(#master_svg0_0_3658)"><path d="M17,2C17,2,17,4,17,4C17,4,20.006599,4,20.006599,4C20.555199,4,21,4.4449501,21,4.993400100000001C21,4.993400100000001,21,21.006599,21,21.006599C21,21.555199,20.555099,22,20.006599,22C20.006599,22,3.9934001,22,3.9934001,22C3.44476008,22,3,21.555099,3,21.006599C3,21.006599,3,4.993400100000001,3,4.993400100000001C3,4.4447601,3.4449501,4,3.9934001,4C3.9934001,4,7,4,7,4C7,4,7,2,7,2C7,2,17,2,17,2ZM7,6C7,6,5,6,5,6C5,6,5,20,5,20C5,20,19,20,19,20C19,20,19,6,19,6C19,6,17,6,17,6C17,6,17,8,17,8C17,8,7,8,7,8C7,8,7,6,7,6ZM15,4C15,4,9,4,9,4C9,4,9,6,9,6C9,6,15,6,15,6C15,6,15,4,15,4Z" fill="#000000" fill-opacity="1"/><path d="M7,12L9,12L9,10L7,10L7,12ZM7,15L9,15L9,13L7,13L7,15ZM7,18L9,18L9,16L7,16L7,18Z" fill="#3BCDA1" fill-opacity="1"/></g></svg>