<svg xmlns="http://www.w3.org/2000/svg" xmlns:xlink="http://www.w3.org/1999/xlink" fill="none" version="1.1" width="18" height="18" viewBox="0 0 18 18"><defs><clipPath id="master_svg0_0_514"><rect x="0" y="0" width="18" height="18" rx="0"/></clipPath></defs><g clip-path="url(#master_svg0_0_514)"><path d="M9.75,14.953575C12.464025,14.615175,14.615175,12.464025,14.953575,9.75C14.953575,9.75,12.75,9.75,12.75,9.75C12.75,9.75,12.75,8.25,12.75,8.25C12.75,8.25,14.953575,8.25,14.953575,8.25C14.615175,5.5359602,12.464025,3.384855,9.75,3.0464176C9.75,3.0464176,9.75,5.25,9.75,5.25C9.75,5.25,8.25,5.25,8.25,5.25C8.25,5.25,8.25,3.0464176,8.25,3.0464176C5.5359602,3.384855,3.384855,5.5359602,3.0464176,8.25C3.0464176,8.25,5.25,8.25,5.25,8.25C5.25,8.25,5.25,9.75,5.25,9.75C5.25,9.75,3.0464176,9.75,3.0464176,9.75C3.384855,12.464025,5.5359602,14.615175,8.25,14.953575C8.25,14.953575,8.25,12.75,8.25,12.75C8.25,12.75,9.75,12.75,9.75,12.75C9.75,12.75,9.75,14.953575,9.75,14.953575ZM9,16.5C4.8578624999999995,16.5,1.5,13.1421,1.5,9C1.5,4.8578624999999995,4.8578624999999995,1.5,9,1.5C13.1421,1.5,16.5,4.8578624999999995,16.5,9C16.5,13.1421,13.1421,16.5,9,16.5ZM9,10.5C8.171549800000001,10.5,7.5,9.8284502,7.5,9C7.5,8.171549800000001,8.171549800000001,7.5,9,7.5C9.8284502,7.5,10.5,8.171549800000001,10.5,9C10.5,9.8284502,9.8284502,10.5,9,10.5Z" fill="#7F7F7F" fill-opacity="1"/></g></svg>