<svg xmlns="http://www.w3.org/2000/svg" xmlns:xlink="http://www.w3.org/1999/xlink" fill="none" version="1.1" width="18" height="18" viewBox="0 0 18 18"><defs><clipPath id="master_svg0_0_517"><rect x="0" y="0" width="18" height="18" rx="0"/></clipPath></defs><g clip-path="url(#master_svg0_0_517)"><path d="M13.523251,12.462601C13.523251,12.462601,16.735275,15.674625,16.735275,15.674625C16.735275,15.674625,15.674625,16.735275,15.674625,16.735275C15.674625,16.735275,12.462601,13.523251,12.462601,13.523251C11.3076754,14.44725,9.8430004,15,8.25,15C4.5240002,15,1.5,11.976,1.5,8.25C1.5,4.5240002,4.5240002,1.5,8.25,1.5C11.976,1.5,15,4.5240002,15,8.25C15,9.8430004,14.44725,11.3076754,13.523251,12.462601ZM12.018525,11.906099C12.935625,10.9609489,13.5,9.6716995,13.5,8.25C13.5,5.349375,11.1506252,3,8.25,3C5.349375,3,3,5.349375,3,8.25C3,11.1506252,5.349375,13.5,8.25,13.5C9.6716995,13.5,10.9609489,12.935625,11.906099,12.018525C11.906099,12.018525,12.018525,11.906099,12.018525,11.906099Z" fill="#7F7F7F" fill-opacity="1"/></g></svg>