<svg xmlns="http://www.w3.org/2000/svg" xmlns:xlink="http://www.w3.org/1999/xlink" fill="none" version="1.1" width="20" height="20" viewBox="0 0 20 20"><defs><clipPath id="master_svg0_0_3559"><rect x="0" y="0" width="20" height="20" rx="0"/></clipPath></defs><g clip-path="url(#master_svg0_0_3559)"><path d="M9.999999753860473,0.8333333134651184C9.999999753860473,0.8333333134651184,17.916666253860473,5.416666813465119,17.916666253860473,5.416666813465119C17.916666253860473,5.416666813465119,17.916666253860473,14.583334313465118,17.916666253860473,14.583334313465118C17.916666253860473,14.583334313465118,9.999999753860473,19.16666731346512,9.999999753860473,19.16666731346512C9.999999753860473,19.16666731346512,2.0833332538604736,14.583334313465118,2.0833332538604736,14.583334313465118C2.0833332538604736,14.583334313465118,2.0833332538604736,5.416666813465119,2.0833332538604736,5.416666813465119C2.0833332538604736,5.416666813465119,9.999999753860473,0.8333333134651184,9.999999753860473,0.8333333134651184ZM9.999999753860473,2.7591668134651184C9.999999753860473,2.7591668134651184,3.7499998538604737,6.3775919134651184,3.7499998538604737,6.3775919134651184C3.7499998538604737,6.3775919134651184,3.7499998538604737,13.62241731346512,3.7499998538604737,13.62241731346512C3.7499998538604737,13.62241731346512,9.999999753860473,17.24083231346512,9.999999753860473,17.24083231346512C9.999999753860473,17.24083231346512,16.249999253860473,13.62241731346512,16.249999253860473,13.62241731346512C16.249999253860473,13.62241731346512,16.249999253860473,6.3775919134651184,16.249999253860473,6.3775919134651184C16.249999253860473,6.3775919134651184,9.999999753860473,2.7591668134651184,9.999999753860473,2.7591668134651184ZM9.999999753860473,13.333334313465118C8.159049753860474,13.333334313465118,6.666666253860473,11.840917313465118,6.666666253860473,10.000000313465119C6.666666253860473,8.15905031346512,8.159049753860474,6.666666813465119,9.999999753860473,6.666666813465119C11.840915953860474,6.666666813465119,13.333333253860474,8.15905031346512,13.333333253860474,10.000000313465119C13.333333253860474,11.840917313465118,11.840915953860474,13.333334313465118,9.999999753860473,13.333334313465118ZM9.999999753860473,11.666667313465119C10.920500053860474,11.666667313465119,11.666666253860473,10.92050031346512,11.666666253860473,10.000000313465119C11.666666253860473,9.079500513465119,10.920500053860474,8.333333813465117,9.999999753860473,8.333333813465117C9.079499953860473,8.333333813465117,8.333333253860474,9.079500513465119,8.333333253860474,10.000000313465119C8.333333253860474,10.92050031346512,9.079499953860473,11.666667313465119,9.999999753860473,11.666667313465119Z" fill="#FFFFFF" fill-opacity="1"/></g></svg>