<svg xmlns="http://www.w3.org/2000/svg" xmlns:xlink="http://www.w3.org/1999/xlink" fill="none" version="1.1" width="16" height="16" viewBox="0 0 16 16"><defs><clipPath id="master_svg0_0_1179"><rect x="-0.5" y="-0.5" width="17" height="17" rx="0"/></clipPath></defs><g clip-path="url(#master_svg0_0_1179)"><path d="M3,4.5L13,4.5L13,4.49990001Q13.049236,4.49989998,13.097525,4.49029455Q13.145815,4.48068911,13.191302,4.46184736Q13.23679,4.44300562,13.277728,4.41565165Q13.318666,4.38829768,13.353481,4.35348266Q13.388296,4.31866765,13.41565,4.27772954Q13.443005,4.23679143,13.461846,4.19130343Q13.480688,4.14581545,13.490294,4.097525649Q13.499899,4.049235854,13.4999,4Q13.499899,3.950764146,13.490294,3.902474351Q13.480688,3.85418455,13.461845,3.80869657Q13.443005,3.76320857,13.415651,3.72227046Q13.388297,3.68133235,13.353482,3.64651734Q13.318666,3.61170232,13.277728,3.58434838Q13.23679,3.55699441,13.191302,3.53815266Q13.145815,3.51931089,13.097525,3.5097054500000002Q13.049236,3.50010002,13,3.50009999L13,3.5L3,3.5L3,3.50009999Q2.950764146,3.50010002,2.902474351,3.5097054500000002Q2.85418455,3.51931089,2.80869657,3.53815264Q2.76320857,3.55699438,2.72227046,3.58434835Q2.68133235,3.61170232,2.64651734,3.64651734Q2.61170232,3.68133235,2.58434838,3.72227046Q2.55699441,3.76320857,2.53815266,3.80869657Q2.51931089,3.85418455,2.5097054500000002,3.902474351Q2.50010002,3.950764146,2.50009999,4Q2.50010002,4.049235854,2.5097054500000002,4.097525649Q2.51931089,4.14581545,2.53815264,4.19130343Q2.55699438,4.23679143,2.58434835,4.27772954Q2.61170232,4.31866765,2.64651734,4.35348266Q2.68133235,4.38829768,2.72227046,4.41565162Q2.76320857,4.44300559,2.80869657,4.46184734Q2.85418455,4.48068911,2.902474351,4.49029455Q2.950764146,4.49989998,3,4.49990001L3,4.5Z" fill-rule="evenodd" fill="#666666" fill-opacity="1"/><path d="M11.4377155,7.39035639Q11.3487768,7.31920603,11.2994385,7.21655108Q11.2500992,7.11389613,11.2501001,7Q11.2500992,6.950764146,11.2597046,6.902474351Q11.26931,6.85418455,11.2881517,6.80869657Q11.3069935,6.76320857,11.3343477,6.72227046Q11.361702,6.68133235,11.3965168,6.64651734Q11.4313316,6.61170232,11.47227,6.58434838Q11.5132084,6.55699441,11.5586958,6.53815266Q11.6041842,6.51931089,11.6524744,6.50970545Q11.7007637,6.50010002,11.75,6.50009999Q11.925355,6.50009999,12.0622845,6.60964361L12.0623474,6.60956547L13.312347,7.6095649Q13.355729,7.64427018,13.390434,7.6876516299999995Q13.421197,7.72610605,13.443867,7.76982325Q13.466537,7.8135404,13.480243,7.86084032Q13.493948,7.9081403,13.498163,7.95720524Q13.502378,8.0062703,13.496941,8.0552148Q13.491501,8.1041591,13.476619,8.1511023Q13.461737,8.1980453,13.437983,8.241183Q13.414228,8.2843208,13.382515,8.3219954Q13.350801,8.3596699,13.312347,8.3904335L12.0623484,9.390435L12.0622854,9.3903565Q11.9253559,9.499900799999999,11.75,9.499900799999999Q11.7007637,9.499900799999999,11.6524744,9.4902954Q11.6041842,9.48069,11.5586958,9.461848Q11.5132084,9.443006,11.47227,9.4156523Q11.4313316,9.3882983,11.3965168,9.3534834Q11.361702,9.3186684,11.3343468,9.2777302Q11.3069935,9.2367921,11.2881517,9.191304Q11.26931,9.1458158,11.2597046,9.0975261Q11.2500992,9.0492363,11.2501001,9.000000700000001Q11.2501001,8.8861049,11.2994385,8.7834502Q11.3487768,8.680795400000001,11.4377146,8.6096449L11.4376516,8.6095665L11.5746107,8.4999994L3,8.4999994L3,8.4998994Q2.950764146,8.4998994,2.902474351,8.490294Q2.85418455,8.4806885,2.80869657,8.4618467Q2.76320857,8.4430048,2.72227046,8.415651Q2.68133235,8.388297,2.64651734,8.353482Q2.61170232,8.3186669,2.58434838,8.2777288Q2.55699441,8.2367907,2.53815266,8.1913027Q2.51931089,8.1458147,2.5097054500000002,8.097525000000001Q2.50010002,8.0492352,2.50009999,7.9999994Q2.50010002,7.95076346,2.5097054500000002,7.90247369Q2.51931089,7.85418391,2.53815264,7.80869591Q2.55699438,7.76320791,2.58434835,7.7222697700000005Q2.61170232,7.68133169,2.64651734,7.64651674Q2.68133235,7.61170173,2.72227046,7.58434772Q2.76320857,7.55699372,2.80869657,7.53815198Q2.85418455,7.51931024,2.902474351,7.50970483Q2.950764146,7.50009942,3,7.50009942L3,7.49999937L11.5746088,7.49999937L11.4376526,7.39043453L11.4377155,7.39035639Z" fill-rule="evenodd" fill="#666666" fill-opacity="1"/><path d="M3,12.5L13,12.5L13,12.49990001Q13.049236,12.49989998,13.097525,12.49029455Q13.145815,12.48068911,13.191302,12.46184736Q13.23679,12.44300562,13.277728,12.41565165Q13.318666,12.38829768,13.353481,12.35348266Q13.388296,12.31866765,13.41565,12.27772954Q13.443005,12.23679143,13.461846,12.19130343Q13.480688,12.14581545,13.490294,12.097525649Q13.499899,12.049235854,13.4999,12Q13.499899,11.950764146,13.490294,11.902474351Q13.480688,11.85418455,13.461845,11.80869657Q13.443005,11.76320857,13.415651,11.72227046Q13.388297,11.68133235,13.353482,11.64651734Q13.318666,11.61170232,13.277728,11.58434838Q13.23679,11.55699441,13.191302,11.53815266Q13.145815,11.51931089,13.097525,11.50970545Q13.049236,11.50010002,13,11.50009999L13,11.5L3,11.5L3,11.50009999Q2.950764146,11.50010002,2.902474351,11.50970545Q2.85418455,11.51931089,2.80869657,11.53815264Q2.76320857,11.55699438,2.72227046,11.58434835Q2.68133235,11.61170232,2.64651734,11.64651734Q2.61170232,11.68133235,2.58434838,11.72227046Q2.55699441,11.76320857,2.53815266,11.80869657Q2.51931089,11.85418455,2.5097054500000002,11.902474351Q2.50010002,11.950764146,2.50009999,12Q2.50010002,12.049235854,2.5097054500000002,12.097525649Q2.51931089,12.14581545,2.53815264,12.19130343Q2.55699438,12.23679143,2.58434835,12.27772954Q2.61170232,12.31866765,2.64651734,12.35348266Q2.68133235,12.38829768,2.72227046,12.41565162Q2.76320857,12.44300559,2.80869657,12.46184734Q2.85418455,12.48068911,2.902474351,12.49029455Q2.950764146,12.49989998,3,12.49990001L3,12.5Z" fill-rule="evenodd" fill="#666666" fill-opacity="1"/></g></svg>