<svg xmlns="http://www.w3.org/2000/svg" xmlns:xlink="http://www.w3.org/1999/xlink" fill="none" version="1.1" width="16" height="16" viewBox="0 0 16 16"><defs><clipPath id="master_svg0_0_3569"><rect x="0" y="0" width="16" height="16" rx="0"/></clipPath></defs><g clip-path="url(#master_svg0_0_3569)"><path d="M5.333333173069763,13.333198967651366C5.333333173069763,13.333198967651366,5.333333173069763,14.621532967651367,5.333333173069763,14.621532967651367C5.333333173069763,14.805666967651367,5.1840930730697625,14.954865967651367,4.999999873069763,14.954865967651367C4.922019873069763,14.954865967651367,4.846513373069763,14.927531967651367,4.786606673069763,14.877598967651368C4.786606673069763,14.877598967651368,2.040620033069763,12.589266967651367,2.040620033069763,12.589266967651367C1.8991933430697632,12.471466967651367,1.880086723069763,12.261266967651368,1.9979400630697632,12.119799967651367C2.0612733930697633,12.043798967651368,2.1550933730697635,11.999865967651367,2.254020033069763,11.999865967651367C2.254020033069763,11.999865967651367,11.999999373069762,11.999865967651367,11.999999373069762,11.999865967651367C12.736399373069764,11.999865967651367,13.333332373069764,11.402931967651368,13.333332373069764,10.666532467651367C13.333332373069764,10.666532467651367,13.333332373069764,5.333232867651367,13.333332373069764,5.333232867651367C13.333332373069764,5.333232867651367,14.666665373069764,5.333232867651367,14.666665373069764,5.333232867651367C14.666665373069764,5.333232867651367,14.666665373069764,10.666532467651367,14.666665373069764,10.666532467651367C14.666665373069764,12.139332967651367,13.472733373069763,13.333198967651366,11.999999373069762,13.333198967651366C11.999999373069762,13.333198967651366,5.333333173069763,13.333198967651366,5.333333173069763,13.333198967651366ZM10.666666373069763,2.6665665676513672C10.666666373069763,2.6665665676513672,10.666666373069763,1.3782532776513672,10.666666373069763,1.3782532776513672C10.666666373069763,1.194159957651367,10.815932673069764,1.0449199676513672,10.999999373069762,1.0449199676513672C11.077999473069763,1.0449199676513672,11.153466573069764,1.0722599826513672,11.213400273069762,1.1221799776513672C11.213400273069762,1.1221799776513672,13.959399373069763,3.410499767651367,13.959399373069763,3.410499767651367C14.100800373069763,3.528353167651367,14.119932373069764,3.738546567651367,14.002066373069763,3.879966467651367C13.938732373069763,3.955966467651367,13.844932373069764,3.999906267651367,13.745998373069764,3.999906267651367C13.745998373069764,3.999906267651367,3.999999873069763,3.999899667651367,3.999999873069763,3.999899667651367C3.2636198730697634,3.999899667651367,2.6666666730697632,4.596853067651367,2.6666666730697632,5.333232867651367C2.6666666730697632,5.333232867651367,2.6666666730697632,10.666532467651367,2.6666666730697632,10.666532467651367C2.6666666730697632,10.666532467651367,1.3333333730697632,10.666532467651367,1.3333333730697632,10.666532467651367C1.3333333730697632,10.666532467651367,1.3333333730697632,5.333232867651367,1.3333333730697632,5.333232867651367C1.3333333730697632,3.8604728676513673,2.527239873069763,2.6665665676513672,3.999999873069763,2.6665665676513672C3.999999873069763,2.6665665676513672,10.666666373069763,2.6665665676513672,10.666666373069763,2.6665665676513672Z" fill="#000000" fill-opacity="1"/></g></svg>