<svg xmlns="http://www.w3.org/2000/svg" xmlns:xlink="http://www.w3.org/1999/xlink" fill="none" version="1.1" width="28" height="28" viewBox="0 0 28 28"><defs><clipPath id="master_svg0_0_4274/0_413/0_70"><rect x="2" y="2" width="24" height="24" rx="0"/></clipPath><linearGradient x1="0.5" y1="0" x2="0.5" y2="1" id="master_svg1_0_34"><stop offset="0%" stop-color="#53B99D" stop-opacity="1"/><stop offset="100%" stop-color="#36D1A1" stop-opacity="1"/></linearGradient></defs><g clip-path="url(#master_svg0_0_4274/0_413/0_70)"><path d="M16.121299980331422,12.479599964337158C15.730798980331421,12.089099864337157,15.09759998033142,12.089099864337157,14.70709998033142,12.479599964337158C14.70709998033142,12.479599964337158,13.99999998033142,13.186799564337159,13.99999998033142,13.186799564337159C13.218899480331421,13.967799664337159,11.95259068033142,13.967799664337159,11.171540480331421,13.186799564337159C10.39049028033142,12.405699764337157,10.39049028033142,11.139370464337158,11.171540480331421,10.35832026433716C11.171540480331421,10.35832026433716,16.802199980331423,4.726169984337158,16.802199980331423,4.726169984337158C18.90609998033142,4.250220004337158,21.20079998033142,4.831240054337158,22.83879998033142,6.469240064337158C25.25819898033142,8.88859986433716,25.37159898033142,12.740700264337159,23.17919898033142,15.294400164337159C23.17919898033142,15.294400164337159,21.07099898033142,17.42940016433716,21.07099898033142,17.42940016433716C21.07099898033142,17.42940016433716,16.121299980331422,12.479599964337158,16.121299980331422,12.479599964337158ZM5.161129980331421,6.469240064337158C7.334520080331421,4.295840144337158,10.664109980331421,3.9833200543371583,13.16999988033142,5.531650004337158C13.16999988033142,5.531650004337158,9.757320180331421,8.944109964337159,9.757320180331421,8.944109964337159C8.19523028033142,10.506209864337158,8.19523028033142,13.038898964337157,9.757320180331421,14.600999164337159C11.27209068033142,16.11569916433716,13.69949998033142,16.161599164337158,15.269499980331421,14.738699164337158C15.269499980331421,14.738699164337158,15.414199980331421,14.600999164337159,15.414199980331421,14.600999164337159C15.414199980331421,14.600999164337159,19.65679898033142,18.843599164337157,19.65679898033142,18.843599164337157C19.65679898033142,18.843599164337157,15.414199980331421,23.086201164337158,15.414199980331421,23.086201164337158C14.633098980331422,23.86730016433716,13.366799980331422,23.86730016433716,12.585799980331421,23.086201164337158C12.585799980331421,23.086201164337158,5.161129980331421,15.661599164337158,5.161129980331421,15.661599164337158C2.6227219103314208,13.123199964337159,2.6227219103314208,9.007639864337158,5.161129980331421,6.469240064337158Z" fill="#000000" fill-opacity="1"/><path d="M16.121299980331422,12.479599964337158C15.730798980331421,12.089099864337157,15.09759998033142,12.089099864337157,14.70709998033142,12.479599964337158C14.70709998033142,12.479599964337158,13.99999998033142,13.186799564337159,13.99999998033142,13.186799564337159C13.218899480331421,13.967799664337159,11.95259068033142,13.967799664337159,11.171540480331421,13.186799564337159C10.39049028033142,12.405699764337157,10.39049028033142,11.139370464337158,11.171540480331421,10.35832026433716C11.171540480331421,10.35832026433716,16.802199980331423,4.726169984337158,16.802199980331423,4.726169984337158C18.90609998033142,4.250220004337158,21.20079998033142,4.831240054337158,22.83879998033142,6.469240064337158C25.25819898033142,8.88859986433716,25.37159898033142,12.740700264337159,23.17919898033142,15.294400164337159C23.17919898033142,15.294400164337159,21.07099898033142,17.42940016433716,21.07099898033142,17.42940016433716C21.07099898033142,17.42940016433716,16.121299980331422,12.479599964337158,16.121299980331422,12.479599964337158ZM5.161129980331421,6.469240064337158C7.334520080331421,4.295840144337158,10.664109980331421,3.9833200543371583,13.16999988033142,5.531650004337158C13.16999988033142,5.531650004337158,9.757320180331421,8.944109964337159,9.757320180331421,8.944109964337159C8.19523028033142,10.506209864337158,8.19523028033142,13.038898964337157,9.757320180331421,14.600999164337159C11.27209068033142,16.11569916433716,13.69949998033142,16.161599164337158,15.269499980331421,14.738699164337158C15.269499980331421,14.738699164337158,15.414199980331421,14.600999164337159,15.414199980331421,14.600999164337159C15.414199980331421,14.600999164337159,19.65679898033142,18.843599164337157,19.65679898033142,18.843599164337157C19.65679898033142,18.843599164337157,15.414199980331421,23.086201164337158,15.414199980331421,23.086201164337158C14.633098980331422,23.86730016433716,13.366799980331422,23.86730016433716,12.585799980331421,23.086201164337158C12.585799980331421,23.086201164337158,5.161129980331421,15.661599164337158,5.161129980331421,15.661599164337158C2.6227219103314208,13.123199964337159,2.6227219103314208,9.007639864337158,5.161129980331421,6.469240064337158Z" fill="url(#master_svg1_0_34)" fill-opacity="1"/></g></svg>