<svg xmlns="http://www.w3.org/2000/svg" xmlns:xlink="http://www.w3.org/1999/xlink" fill="none" version="1.1" width="28" height="28" viewBox="0 0 28 28"><defs><clipPath id="master_svg0_0_4005/0_414/0_86"><rect x="2" y="2" width="24" height="24" rx="0"/></clipPath><linearGradient x1="0.5" y1="0" x2="0.5" y2="1" id="master_svg1_0_34"><stop offset="0%" stop-color="#53B99D" stop-opacity="1"/><stop offset="100%" stop-color="#36D1A1" stop-opacity="1"/></linearGradient></defs><g clip-path="url(#master_svg0_0_4005/0_414/0_86)"><path d="M7.322440115255738,7.965769737319946C7.4236700152557376,7.8539497373199465,7.528200115255737,7.744050037319946,7.636040215255737,7.6361999373199465C8.119450315255737,7.152799837319947,8.644170315255737,6.735879937319947,9.198830415255738,6.385439837319947C8.884900315255738,6.298909937319946,8.602740015255737,6.247660137319946,8.355420115255738,6.229010137319946C7.783080115255737,6.185840137319946,7.5324299152557375,6.321749937319947,7.425529915255737,6.428649937319946C7.318630015255737,6.535549837319946,7.1827202152557375,6.786200037319946,7.225890115255737,7.358530037319946C7.239740115255737,7.542160037319946,7.271560215255738,7.744989837319946,7.322440115255738,7.965769737319946ZM22.725700715255737,16.210900737319946C22.787300715255736,16.333900737319944,22.846300715255737,16.455900737319947,22.902800715255736,16.576800737319946C23.379299715255737,17.597900737319947,23.694101715255737,18.594599737319946,23.76160071525574,19.490499737319947C23.828901715255736,20.382099737319948,23.656000715255736,21.310899737319946,22.981899715255736,21.985000737319947C22.307699715255737,22.659101737319947,21.37900071525574,22.831998737319946,20.487399715255737,22.764799737319947C19.70680071525574,22.705898737319945,18.84969971525574,22.459299737319945,17.96659971525574,22.081699737319948C17.96659971525574,22.081699737319948,17.96399971525574,22.082899737319945,17.96399971525574,22.082899737319945C17.810899715255736,22.017398737319947,17.656999715255736,21.947999737319947,17.502499715255738,21.874799737319947C15.469499715255738,20.912500737319945,13.143500115255737,19.220699737319947,10.959900115255738,17.03709973731995C8.778550115255737,14.855799737319947,7.088069915255737,12.532299237319947,6.125199915255737,10.500909537319945C6.051779915255738,10.345999437319946,5.982050185255737,10.191660137319946,5.916290165255737,10.038140037319947C5.916290165255737,10.038140037319947,5.917340155255737,10.036000037319948,5.917340155255737,10.036000037319948C5.538150195255737,9.150699837319946,5.290570105255737,8.291400237319946,5.231550095255737,7.508950237319946C5.164300095255737,6.617310237319947,5.337170245255737,5.688579937319947,6.011320215255737,5.014439937319946C6.685470215255737,4.340289947319946,7.614189815255737,4.167419828319947,8.505829815255737,4.234669827319946C9.401739815255738,4.302239827319946,10.398400115255736,4.617029817319946,11.419490115255737,5.093529817319946C11.542530315255737,5.150959847319946,11.666670115255737,5.2110798373199465,11.791810315255738,5.273839837319946C14.762300215255737,4.525149817319947,18.040400715255736,5.312599937319947,20.363999715255737,7.6361999373199465C22.688200715255736,9.960469937319946,23.475500715255738,13.239700537319946,22.725700715255737,16.210900737319946ZM21.61280171525574,18.804399737319947C21.262701715255737,19.357899737319947,20.84649971525574,19.881599737319945,20.363999715255737,20.364099737319947C20.256999715255738,20.471099737319946,20.147900715255737,20.574899737319946,20.037000715255736,20.675399737319946C20.255300715255736,20.725399737319947,20.455999715255736,20.756698737319947,20.63779971525574,20.770399737319945C21.210100715255738,20.813598737319946,21.460800715255736,20.677700737319945,21.56769971525574,20.570800737319946C21.674599715255738,20.463901737319947,21.810499715255737,20.213199737319947,21.767300715255736,19.64089973731995C21.748800715255737,19.395400737319946,21.698200715255737,19.115599737319947,21.61280171525574,18.804399737319947ZM7.636040215255737,20.364099737319947C5.3724102952557375,18.100499737319947,4.566660165255738,14.931099737319947,5.218770145255737,12.022599937319946C6.301050215255737,14.003400137319947,7.923740115255738,16.122299737319945,9.899240215255737,18.097799737319946C11.876320115255737,20.074799737319946,13.997099615255737,21.698600737319946,15.979399715255738,22.781000737319946C13.070499215255737,23.433900737319945,9.900150015255736,22.628198737319945,7.636040215255737,20.364099737319947Z" fill="#000000" fill-opacity="1"/><path d="M7.322440115255738,7.965769737319946C7.4236700152557376,7.8539497373199465,7.528200115255737,7.744050037319946,7.636040215255737,7.6361999373199465C8.119450315255737,7.152799837319947,8.644170315255737,6.735879937319947,9.198830415255738,6.385439837319947C8.884900315255738,6.298909937319946,8.602740015255737,6.247660137319946,8.355420115255738,6.229010137319946C7.783080115255737,6.185840137319946,7.5324299152557375,6.321749937319947,7.425529915255737,6.428649937319946C7.318630015255737,6.535549837319946,7.1827202152557375,6.786200037319946,7.225890115255737,7.358530037319946C7.239740115255737,7.542160037319946,7.271560215255738,7.744989837319946,7.322440115255738,7.965769737319946ZM22.725700715255737,16.210900737319946C22.787300715255736,16.333900737319944,22.846300715255737,16.455900737319947,22.902800715255736,16.576800737319946C23.379299715255737,17.597900737319947,23.694101715255737,18.594599737319946,23.76160071525574,19.490499737319947C23.828901715255736,20.382099737319948,23.656000715255736,21.310899737319946,22.981899715255736,21.985000737319947C22.307699715255737,22.659101737319947,21.37900071525574,22.831998737319946,20.487399715255737,22.764799737319947C19.70680071525574,22.705898737319945,18.84969971525574,22.459299737319945,17.96659971525574,22.081699737319948C17.96659971525574,22.081699737319948,17.96399971525574,22.082899737319945,17.96399971525574,22.082899737319945C17.810899715255736,22.017398737319947,17.656999715255736,21.947999737319947,17.502499715255738,21.874799737319947C15.469499715255738,20.912500737319945,13.143500115255737,19.220699737319947,10.959900115255738,17.03709973731995C8.778550115255737,14.855799737319947,7.088069915255737,12.532299237319947,6.125199915255737,10.500909537319945C6.051779915255738,10.345999437319946,5.982050185255737,10.191660137319946,5.916290165255737,10.038140037319947C5.916290165255737,10.038140037319947,5.917340155255737,10.036000037319948,5.917340155255737,10.036000037319948C5.538150195255737,9.150699837319946,5.290570105255737,8.291400237319946,5.231550095255737,7.508950237319946C5.164300095255737,6.617310237319947,5.337170245255737,5.688579937319947,6.011320215255737,5.014439937319946C6.685470215255737,4.340289947319946,7.614189815255737,4.167419828319947,8.505829815255737,4.234669827319946C9.401739815255738,4.302239827319946,10.398400115255736,4.617029817319946,11.419490115255737,5.093529817319946C11.542530315255737,5.150959847319946,11.666670115255737,5.2110798373199465,11.791810315255738,5.273839837319946C14.762300215255737,4.525149817319947,18.040400715255736,5.312599937319947,20.363999715255737,7.6361999373199465C22.688200715255736,9.960469937319946,23.475500715255738,13.239700537319946,22.725700715255737,16.210900737319946ZM21.61280171525574,18.804399737319947C21.262701715255737,19.357899737319947,20.84649971525574,19.881599737319945,20.363999715255737,20.364099737319947C20.256999715255738,20.471099737319946,20.147900715255737,20.574899737319946,20.037000715255736,20.675399737319946C20.255300715255736,20.725399737319947,20.455999715255736,20.756698737319947,20.63779971525574,20.770399737319945C21.210100715255738,20.813598737319946,21.460800715255736,20.677700737319945,21.56769971525574,20.570800737319946C21.674599715255738,20.463901737319947,21.810499715255737,20.213199737319947,21.767300715255736,19.64089973731995C21.748800715255737,19.395400737319946,21.698200715255737,19.115599737319947,21.61280171525574,18.804399737319947ZM7.636040215255737,20.364099737319947C5.3724102952557375,18.100499737319947,4.566660165255738,14.931099737319947,5.218770145255737,12.022599937319946C6.301050215255737,14.003400137319947,7.923740115255738,16.122299737319945,9.899240215255737,18.097799737319946C11.876320115255737,20.074799737319946,13.997099615255737,21.698600737319946,15.979399715255738,22.781000737319946C13.070499215255737,23.433900737319945,9.900150015255736,22.628198737319945,7.636040215255737,20.364099737319947Z" fill="url(#master_svg1_0_34)" fill-opacity="1"/></g></svg>