<svg xmlns="http://www.w3.org/2000/svg" xmlns:xlink="http://www.w3.org/1999/xlink" fill="none" version="1.1" width="28" height="28" viewBox="0 0 28 28"><defs><clipPath id="master_svg0_0_3746/0_415/0_102"><rect x="2" y="2" width="24" height="24" rx="0"/></clipPath><linearGradient x1="0.5" y1="0" x2="0.5" y2="1" id="master_svg1_0_34"><stop offset="0%" stop-color="#53B99D" stop-opacity="1"/><stop offset="100%" stop-color="#36D1A1" stop-opacity="1"/></linearGradient></defs><g clip-path="url(#master_svg0_0_3746/0_415/0_102)"><path d="M14,24C8.47715,24,4,19.5228,4,14C4,8.47715,8.47715,4,14,4C19.5228,4,24,8.47715,24,14C24,19.5228,19.5228,24,14,24ZM9,14C9,16.761400000000002,11.2385798,19,14,19C16.761400000000002,19,19,16.761400000000002,19,14C19,14,17,14,17,14C17,15.6569,15.6569,17,14,17C12.3430996,17,11,15.6569,11,14C11,14,9,14,9,14Z" fill="#000000" fill-opacity="1"/><path d="M14,24C8.47715,24,4,19.5228,4,14C4,8.47715,8.47715,4,14,4C19.5228,4,24,8.47715,24,14C24,19.5228,19.5228,24,14,24ZM9,14C9,16.761400000000002,11.2385798,19,14,19C16.761400000000002,19,19,16.761400000000002,19,14C19,14,17,14,17,14C17,15.6569,15.6569,17,14,17C12.3430996,17,11,15.6569,11,14C11,14,9,14,9,14Z" fill="url(#master_svg1_0_34)" fill-opacity="1"/></g></svg>