<svg xmlns="http://www.w3.org/2000/svg" xmlns:xlink="http://www.w3.org/1999/xlink" fill="none" version="1.1" width="28" height="28" viewBox="0 0 28 28"><defs><clipPath id="master_svg0_0_1578/0_411/0_43"><rect x="2" y="2" width="24" height="24" rx="0"/></clipPath></defs><g clip-path="url(#master_svg0_0_1578/0_411/0_43)"><path d="M23,23C23,23,5,23,5,23C4.44771999,23,4,22.552299,4,22C4,22,4,14.4868002,4,14.4868002C4,14.1978006,4.12500992,13.9229002,4.34281993,13.7329998C4.34281993,13.7329998,8,10.5443497,8,10.5443497C8,10.5443497,8,6,8,6C8,5.44771999,8.4477201,5,9,5C9,5,23,5,23,5C23.552299,5,24,5.44771999,24,6C24,6,24,22,24,22C24,22.552299,23.552299,23,23,23ZM11,21C11,21,14,21,14,21C14,21,14,14.9415998,14,14.9415998C14,14.9415998,10,11.454019500000001,10,11.454019500000001C10,11.454019500000001,6,14.9415998,6,14.9415998C6,14.9415998,6,21,6,21C6,21,9,21,9,21C9,21,9,17,9,17C9,17,11,17,11,17C11,17,11,21,11,21ZM16,21C16,21,22,21,22,21C22,21,22,7,22,7C22,7,10,7,10,7C10,7,10,9.1272898,10,9.1272898C10.2344398,9.1272898,10.468879699999999,9.2093801,10.6571798,9.3735499C10.6571798,9.3735499,15.6572,13.7329998,15.6572,13.7329998C15.875,13.9229002,16,14.1978006,16,14.4868002C16,14.4868002,16,21,16,21ZM18,13C18,13,20,13,20,13C20,13,20,15,20,15C20,15,18,15,18,15C18,15,18,13,18,13ZM18,17C18,17,20,17,20,17C20,17,20,19,20,19C20,19,18,19,18,19C18,19,18,17,18,17ZM18,9C18,9,20,9,20,9C20,9,20,11,20,11C20,11,18,11,18,11C18,11,18,9,18,9ZM14,9C14,9,16,9,16,9C16,9,16,11,16,11C16,11,14,11,14,11C14,11,14,9,14,9Z" fill="#CBCBCB" fill-opacity="1"/></g></svg>